<?xml version="1.0" standalone="no"?>
<!DOCTYPE svg PUBLIC "-//W3C//DTD SVG 20010904//EN"
 "http://www.w3.org/TR/2001/REC-SVG-20010904/DTD/svg10.dtd">
<svg version="1.0" xmlns="http://www.w3.org/2000/svg"
 width="64.000000pt" height="64.000000pt" viewBox="0 0 64.000000 64.000000"
 preserveAspectRatio="xMidYMid meet">

<g transform="translate(0.000000,64.000000) scale(0.100000,-0.100000)"
fill="#000000" stroke="none">
<path d="M302 615 c-25 -21 -32 -34 -32 -64 0 -20 7 -46 15 -58 13 -19 13 -22
0 -27 -11 -4 -15 -21 -15 -65 0 -57 -1 -60 -28 -66 -16 -3 -48 -26 -72 -50
-24 -25 -49 -45 -55 -45 -6 0 -31 -20 -55 -45 l-44 -45 74 -75 74 -75 48 47
c26 26 45 49 43 52 -3 2 9 20 27 38 29 30 38 33 89 33 112 0 114 2 190 118 54
84 66 109 58 124 -5 10 -14 18 -20 18 -6 0 -42 -30 -80 -67 l-69 -66 0 82 c0
74 -2 83 -20 88 -19 5 -19 6 2 33 39 54 6 125 -64 136 -27 5 -40 1 -66 -21z
m110 -12 c25 -22 30 -60 14 -92 -38 -72 -146 -44 -146 38 0 67 81 101 132 54z
m26 -165 c-3 -9 -31 -14 -81 -16 -64 -2 -77 0 -77 13 0 12 15 15 81 15 60 0
80 -3 77 -12z m172 -41 c0 -7 -28 -55 -63 -107 l-62 -95 -85 -3 c-82 -3 -86
-4 -121 -38 l-35 -35 -58 58 -57 57 43 43 42 43 88 0 c72 0 88 -3 88 -15 0
-12 -13 -15 -60 -15 -33 0 -60 -4 -60 -10 0 -6 36 -10 88 -10 l88 0 74 75 c68
69 90 81 90 52z m-170 -2 c0 -12 -16 -15 -80 -15 -64 0 -80 3 -80 15 0 12 16
15 80 15 64 0 80 -3 80 -15z m-2 -47 c-3 -7 -14 -13 -26 -12 -12 0 -47 1 -77
2 -88 3 -65 22 26 22 60 0 80 -3 77 -12z m2 -43 c0 -8 -9 -15 -20 -15 -11 0
-20 7 -20 15 0 8 9 15 20 15 11 0 20 -7 20 -15z m-260 -141 c48 -49 60 -68 51
-77 -9 -9 -27 5 -77 55 -58 57 -74 88 -45 88 4 0 36 -30 71 -66z m-30 -38 c35
-37 42 -48 31 -58 -10 -11 -23 -2 -67 44 -29 31 -57 52 -60 46 -4 -5 18 -35
47 -66 l54 -57 -60 57 c-58 56 -59 58 -41 77 23 25 35 19 96 -43z"/>
<path d="M345 579 c-5 -16 -2 -26 9 -35 16 -11 16 -13 0 -22 -10 -5 -12 -12
-6 -16 5 -3 15 1 22 9 10 13 10 19 -4 34 -17 18 -17 19 0 23 15 3 16 4 1 16
-13 11 -16 10 -22 -9z"/>
</g>
</svg>
